<?xml version="1.0" encoding="utf-8"?>
<!DOCTYPE svg PUBLIC "-//W3C//DTD SVG 1.1//EN" "http://www.w3.org/Graphics/SVG/1.1/DTD/svg11.dtd">
<svg style="width:308px;height:308px;" version="1.1" id="图形" xmlns="http://www.w3.org/2000/svg" xmlns:xlink="http://www.w3.org/1999/xlink" x="0px" y="0px" width="1024px" height="1024px" viewBox="0 0 1024 1024" enable-background="new 0 0 1024 1024" xml:space="preserve">
  <path class="svgpath" data-index="path_0" fill="#fff" d="M790.533333 760.365333l-159.125333-159.128c72.8-87.997333 68.034667-218.578667-14.352-300.962667-87.477333-87.477333-229.306667-87.477333-316.784 0s-87.477333 229.306667 0 316.784c82.386667 82.386667 212.968 87.152 300.962667 14.352l159.128 159.125333L790.533333 760.365333zM330.442667 586.888c-70.816-70.816-70.816-185.629333 0-256.445333 70.816-70.813333 185.629333-70.816 256.445333 0 70.813333 70.816 70.813333 185.632 0 256.445333C516.072 657.704 401.258667 657.701333 330.442667 586.888z" />

</svg>
